<mxfile host="app.diagrams.net" modified="2023-10-22T11:15:37.434Z" agent="Mozilla/5.0 (Windows NT 10.0; Win64; x64) AppleWebKit/537.36 (KHTML, like Gecko) Chrome/116.0.0.0 Safari/537.36 OPR/102.0.0.0 (Edition Yx GX)" version="21.7.4" etag="FPJ7vN-_8DU_KNqvmafu" type="github">
  <diagram name="Страница — 1" id="gG43Eo-GKTNSlwUND3mZ">
    <mxGraphModel>
      <root>
        <mxCell id="0" />
        <mxCell id="1" parent="0" />
      </root>
    </mxGraphModel>
  </diagram>
</mxfile>
